HIERARCHY
ROOT Hips
{
	OFFSET 0.000000 0.000000 0.000000
	CHANNELS 6 Xposition Yposition Zposition Yrotation Xrotation Zrotation
	JOINT Chest
	{
		OFFSET 0.000000 -0.009281 11.569106
		CHANNELS 3 Yrotation Xrotation Zrotation
		JOINT Chest2
		{
			OFFSET -0.000000 0.016865 9.269641
			CHANNELS 3 Yrotation Xrotation Zrotation
			JOINT Chest3
			{
				OFFSET -0.000000 0.000001 8.374491
				CHANNELS 3 Yrotation Xrotation Zrotation
				JOINT Chest4
				{
					OFFSET -0.000000 0.000001 8.374493
					CHANNELS 3 Yrotation Xrotation Zrotation
					JOINT Neck
					{
						OFFSET -0.000000 0.000002 12.152554
						CHANNELS 3 Yrotation Xrotation Zrotation
						JOINT Head
						{
							OFFSET -0.000000 0.040101 7.802319
							CHANNELS 3 Yrotation Xrotation Zrotation
							End Site
							{
								OFFSET -0.000000 0.020947 14.853096
							}
						}
					}
					JOINT RightCollar
					{
						OFFSET 2.894404 0.000001 6.791374
						CHANNELS 3 Yrotation Xrotation Zrotation
						JOINT RightShoulder
						{
							OFFSET 13.574684 0.000001 0.000000
							CHANNELS 3 Yrotation Xrotation Zrotation
							JOINT RightElbow
							{
								OFFSET 23.923903 0.000002 0.000000
								CHANNELS 3 Yrotation Xrotation Zrotation
								JOINT RightWrist
								{
									OFFSET 19.846718 0.012767 0.000000
									CHANNELS 3 Yrotation Xrotation Zrotation
									End Site
									{
										OFFSET 14.973145 0.000001 0.000000
									}
								}
							}
						}
					}
					JOINT LeftCollar
					{
						OFFSET -2.894404 0.000001 6.791374
						CHANNELS 3 Yrotation Xrotation Zrotation
						JOINT LeftShoulder
						{
							OFFSET -13.574684 -0.000001 0.000000
							CHANNELS 3 Yrotation Xrotation Zrotation
							JOINT LeftElbow
							{
								OFFSET -23.923903 -0.000002 0.000000
								CHANNELS 3 Yrotation Xrotation Zrotation
								JOINT LeftWrist
								{
									OFFSET -19.846718 0.012763 0.000000
									CHANNELS 3 Yrotation Xrotation Zrotation
									End Site
									{
										OFFSET -14.973145 -0.000001 0.000000
									}
								}
							}
						}
					}
				}
			}
		}
	}
	JOINT RightHip
	{
		OFFSET 9.469263 0.004643 0.045487
		CHANNELS 3 Yrotation Xrotation Zrotation
		JOINT RightKnee
		{
			OFFSET 0.000000 0.002661 -40.478676
			CHANNELS 3 Yrotation Xrotation Zrotation
			JOINT RightAnkle
			{
				OFFSET 0.000000 0.049106 -35.224068
				CHANNELS 3 Yrotation Xrotation Zrotation
				JOINT RightToe
				{
					OFFSET -0.000001 12.539529 -6.151390
					CHANNELS 3 Yrotation Xrotation Zrotation
					End Site
					{
						OFFSET -0.000001 5.044994 -1.291870
					}
				}
			}
		}
	}
	JOINT LeftHip
	{
		OFFSET -9.469263 0.004641 0.045487
		CHANNELS 3 Yrotation Xrotation Zrotation
		JOINT LeftKnee
		{
			OFFSET 0.000000 0.002661 -40.478676
			CHANNELS 3 Yrotation Xrotation Zrotation
			JOINT LeftAnkle
			{
				OFFSET 0.000000 0.049106 -35.224068
				CHANNELS 3 Yrotation Xrotation Zrotation
				JOINT LeftToe
				{
					OFFSET -0.000001 12.539529 -6.151390
					CHANNELS 3 Yrotation Xrotation Zrotation
					End Site
					{
						OFFSET -0.000001 5.044994 -1.291870
					}
				}
			}
		}
	}
}
MOTION
Frames: 11
Frame Time: 0.016667
9.730662 7.288440 83.089157 -5.675692 -1.519366 -104.589963 -0.421167 -3.353842 1.370958 -0.174521 -1.488701 0.600810 -0.174521 -1.488701 0.600808 -0.129419 -1.116698 0.450155 4.397372 -24.547340 -12.526931 4.832253 -9.504397 -21.371075 9.388881 2.380915 -6.510085 62.040282 43.532272 26.660602 41.954352 34.736611 47.134504 -6.821718 42.009673 1.690472 -8.937923 -5.169609 -5.230243 -53.533052 26.885774 -21.505390 -30.503690 13.636059 -33.658240 -33.926864 30.278109 -1.678358 -1.049791 -5.695039 -3.173540 2.304594 -5.080310 -10.633577 -0.904840 4.490933 1.904542 0.049685 -0.033434 -0.015729 -0.766967 -6.977850 1.160688 0.673377 -2.236209 -0.962015 -0.862199 3.411167 -0.010240 -0.058549 0.009478 0.018452 
9.718556 7.279615 83.088417 -5.637794 -1.507813 -104.611819 -0.422961 -3.378362 1.355218 -0.175507 -1.498730 0.593461 -0.175507 -1.498730 0.593462 -0.130167 -1.124219 0.444641 4.457688 -24.445158 -12.637621 4.899925 -9.314812 -21.555563 9.318662 2.609794 -6.528770 61.944386 43.628936 26.914412 42.074392 34.579004 47.707529 -7.268895 42.178631 2.323361 -8.858030 -5.001581 -5.280172 -53.339778 27.347072 -21.404259 -30.690591 13.417610 -34.008502 -33.645611 30.307267 -1.758037 -1.034435 -5.681983 -3.158360 2.287315 -5.004676 -10.653187 -0.892484 4.456603 1.905582 0.022724 -0.037156 -0.016955 -0.758649 -6.950651 1.193052 0.669517 -2.200550 -1.010211 -0.857610 3.381853 0.005975 -0.053779 0.009198 0.019641 
9.711968 7.267862 83.088066 -5.588523 -1.499911 -104.657288 -0.428590 -3.386550 1.358004 -0.177285 -1.501925 0.595484 -0.177285 -1.501925 0.595484 -0.131492 -1.126618 0.446150 4.514137 -24.360382 -12.708767 4.972146 -9.155339 -21.669904 9.268289 2.845972 -6.575307 61.938375 43.738086 27.323016 42.261051 34.459677 48.307374 -7.247767 42.672423 3.116219 -8.779382 -4.827645 -5.361542 -53.169973 27.963266 -21.318438 -30.972750 13.307587 -34.447444 -33.264442 30.623730 -2.072994 -1.007628 -5.682806 -3.150569 2.251971 -4.881753 -10.665037 -0.863935 4.398850 1.933831 -0.006448 -0.041642 -0.017927 -0.746123 -6.927629 1.215868 0.664975 -2.150037 -1.032330 -0.857405 3.353097 0.030235 -0.047359 0.007862 0.019603 
9.710693 7.253816 83.088715 -5.528762 -1.493155 -104.721949 -0.428758 -3.369527 1.373007 -0.176604 -1.494429 0.604527 -0.176604 -1.494429 0.604526 -0.130967 -1.120998 0.452938 4.558269 -24.299996 -12.742962 5.034365 -9.040163 -21.720729 9.217345 2.997777 -6.607667 61.954570 43.830799 27.783570 42.644809 34.319993 49.079318 -7.283753 43.410480 3.962708 -8.719419 -4.670773 -5.449623 -53.045035 28.578823 -21.272238 -31.293560 13.510283 -34.983167 -32.931006 31.246633 -2.663951 -0.972438 -5.695136 -3.164280 2.200781 -4.718289 -10.667377 -0.819862 4.319388 2.006886 -0.037636 -0.044896 -0.018636 -0.732713 -6.904156 1.209694 0.662040 -2.092325 -1.020257 -0.861673 3.324100 0.067114 -0.040381 0.008884 0.019091 
9.714533 7.237792 83.089645 -5.462527 -1.487717 -104.807504 -0.423110 -3.341725 1.402868 -0.172871 -1.482171 0.621395 -0.172871 -1.482171 0.621396 -0.128139 -1.111805 0.465602 4.584819 -24.255626 -12.736827 5.076956 -8.954359 -21.703428 9.172527 3.057341 -6.601455 61.986849 43.838883 28.267824 43.057683 34.066193 49.968445 -7.629986 44.167452 5.031181 -8.692940 -4.467483 -5.547839 -52.965385 29.052995 -21.254044 -31.653689 14.184915 -35.665530 -32.535401 32.095629 -3.400421 -0.932779 -5.712980 -3.173766 2.143162 -4.534767 -10.687745 -0.761920 4.232396 2.103947 -0.071064 -0.048960 -0.019797 -0.717088 -6.887032 1.195024 0.654591 -2.021920 -0.984662 -0.865600 3.293883 0.109395 -0.033574 0.010627 0.018800 
9.720646 7.219356 83.089897 -5.388554 -1.480699 -104.918310 -0.412067 -3.295170 1.432976 -0.166986 -1.461933 0.638506 -0.166986 -1.461932 0.638507 -0.123705 -1.096624 0.478455 4.582829 -24.234643 -12.670094 5.086249 -8.911773 -21.584293 9.137699 3.107021 -6.561811 61.977717 43.677748 28.694540 43.316602 33.649197 50.802431 -8.502522 44.655869 6.405794 -8.697723 -4.335591 -5.668426 -52.969852 29.533332 -21.297098 -32.030367 15.173608 -36.489343 -31.954354 33.096037 -4.330690 -0.898093 -5.725652 -3.152988 2.091772 -4.342102 -10.702346 -0.699664 4.141791 2.198249 -0.104801 -0.054521 -0.020438 -0.701407 -6.870883 1.206472 0.646023 -1.942586 -0.955650 -0.872610 3.263504 0.155297 -0.026523 0.012582 0.018833 
9.725787 7.199080 83.089600 -5.317686 -1.474899 -105.054586 -0.411418 -3.244559 1.469646 -0.166272 -1.440434 0.657858 -0.166272 -1.440434 0.657858 -0.123147 -1.080507 0.492977 4.573135 -24.226707 -12.547403 5.096827 -8.890838 -21.366473 9.134303 3.161291 -6.529318 61.992443 43.378402 29.118534 43.288001 33.107279 51.383428 -9.638388 44.983322 7.972461 -8.696669 -4.191976 -5.797325 -53.051370 30.102778 -21.325270 -32.353110 16.210923 -37.346757 -31.278418 34.336488 -5.523321 -0.867552 -5.737579 -3.099992 2.047893 -4.151430 -10.709638 -0.635191 4.051389 2.279872 -0.138621 -0.060531 -0.021091 -0.684947 -6.860493 1.264245 0.634673 -1.863561 -0.935897 -0.883069 3.239033 0.190509 -0.018370 0.012086 0.019630 
9.728858 7.176369 83.088661 -5.255464 -1.470391 -105.215574 -0.420712 -3.194251 1.509967 -0.170835 -1.419180 0.678829 -0.170835 -1.419180 0.678829 -0.126543 -1.064577 0.508698 4.554920 -24.230598 -12.365743 5.107813 -8.889425 -21.044824 9.169774 3.195497 -6.486939 62.008070 42.967299 29.529445 43.187290 32.550096 51.762537 -10.762882 45.377984 9.527342 -8.689984 -4.049352 -5.915810 -53.234904 30.856264 -21.362520 -32.673740 17.171341 -38.166438 -30.489691 35.814766 -6.942604 -0.838459 -5.746104 -3.019561 2.002041 -3.976765 -10.705326 -0.570815 3.967034 2.354103 -0.165960 -0.067493 -0.020900 -0.672143 -6.858123 1.369332 0.627351 -1.789661 -0.916277 -0.899086 3.220308 0.208633 -0.011079 0.011272 0.020113 
9.730801 7.149929 83.086624 -5.206160 -1.469230 -105.404538 -0.436107 -3.137657 1.550308 -0.179154 -1.394582 0.699469 -0.179154 -1.394582 0.699469 -0.132763 -1.046144 0.524168 4.515990 -24.253071 -12.123960 5.098635 -8.921673 -20.620312 9.220299 3.241906 -6.456699 61.925869 42.405048 29.755941 43.255260 31.938187 52.093385 -12.153680 45.920639 10.562010 -8.671495 -4.024761 -6.049620 -53.552098 31.820659 -21.475057 -33.103495 18.150038 -38.991030 -29.446851 37.513496 -8.513416 -0.808988 -5.751393 -2.930702 1.951158 -3.833167 -10.667136 -0.510110 3.898001 2.440745 -0.183884 -0.075215 -0.021270 -0.658550 -6.870901 1.528364 0.616024 -1.718766 -0.890976 -0.915430 3.210535 0.203733 -0.005856 0.007698 0.021053 
9.730195 7.120437 83.084259 -5.168053 -1.475956 -105.615509 -0.455116 -3.081045 1.589902 -0.189676 -1.370247 0.719829 -0.189677 -1.370247 0.719828 -0.140636 -1.027910 0.539422 4.450187 -24.290279 -11.811398 5.060249 -8.980871 -20.075511 9.290370 3.311572 -6.375923 61.597214 41.786466 29.616940 43.357973 31.231778 52.203180 -13.390045 46.277872 10.848791 -8.642229 -4.062538 -6.165683 -53.960584 32.764756 -21.645874 -33.602502 19.300948 -39.860632 -28.345816 39.484234 -10.282885 -0.770559 -5.752057 -2.849885 1.898277 -3.711970 -10.594589 -0.466453 3.831888 2.486066 -0.189901 -0.080652 -0.022232 -0.643514 -6.892875 1.721593 0.609441 -1.658246 -0.850540 -0.936919 3.210980 0.182605 -0.001718 0.002341 0.021859 
9.725220 7.084614 83.082214 -5.148563 -1.484659 -105.836718 -0.484303 -3.038707 1.631555 -0.205535 -1.352198 0.741093 -0.205535 -1.352198 0.741095 -0.152504 -1.014399 0.555340 4.369249 -24.330440 -11.425215 5.012693 -9.043855 -19.402442 9.376874 3.323070 -6.274698 61.117202 41.196453 29.258294 43.401191 30.556542 51.907716 -13.142097 46.061034 10.685101 -8.623835 -4.035864 -6.259521 -54.357261 33.483005 -21.801452 -34.049101 20.805808 -40.770205 -27.766486 41.590982 -12.127359 -0.738842 -5.755285 -2.784948 1.851297 -3.623844 -10.502732 -0.437458 3.779756 2.563808 -0.184759 -0.084112 -0.021747 -0.630222 -6.925137 1.904364 0.607297 -1.614369 -0.796669 -0.963054 3.220051 0.170139 -0.000428 -0.001526 0.021327 
